<?xml version="1.0" encoding="utf-8"?>
<!-- Generator: Adobe Illustrator 27.5.0, SVG Export Plug-In . SVG Version: 6.00 Build 0)  -->
<svg version="1.1" xmlns="http://www.w3.org/2000/svg" xmlns:xlink="http://www.w3.org/1999/xlink" x="0px" y="0px"
	 viewBox="0 0 500 500" style="enable-background:new 0 0 500 500;" xml:space="preserve">
<g id="Sparkles">
	<g>
		<path style="fill:none;stroke:#263238;stroke-width:2.5;stroke-linecap:round;stroke-linejoin:round;stroke-miterlimit:10;" d="
			M121.492,145.506L121.492,145.506c0.649,4.732,4.37,8.454,9.102,9.102l0,0l0,0c-4.732,0.649-8.453,4.37-9.102,9.102l0,0l0,0
			c-0.649-4.732-4.37-8.454-9.102-9.102l0,0l0,0C117.122,153.959,120.843,150.238,121.492,145.506L121.492,145.506z"/>
	</g>
	<g>
		
			<path style="fill:#9ABAE3;stroke:#9ABAE3;stroke-width:2.5;stroke-linecap:round;stroke-linejoin:round;stroke-miterlimit:10;" d="
			M60.123,150.326L60.123,150.326c0.346,2.524,2.33,4.508,4.854,4.854l0,0l0,0c-2.524,0.346-4.508,2.331-4.854,4.854l0,0l0,0
			c-0.346-2.524-2.331-4.508-4.854-4.854l0,0l0,0C57.793,154.834,59.777,152.85,60.123,150.326L60.123,150.326z"/>
	</g>
	<g>
		
			<path style="fill:#9ABAE3;stroke:#9ABAE3;stroke-width:2.5;stroke-linecap:round;stroke-linejoin:round;stroke-miterlimit:10;" d="
			M150.646,176.978L150.646,176.978c0.346,2.524,2.331,4.508,4.854,4.854l0,0l0,0c-2.524,0.346-4.508,2.331-4.854,4.854l0,0l0,0
			c-0.346-2.524-2.331-4.508-4.854-4.854l0,0l0,0C148.316,181.486,150.3,179.501,150.646,176.978L150.646,176.978z"/>
	</g>
	<g>
		<path style="fill:none;stroke:#263238;stroke-width:2.5;stroke-linecap:round;stroke-linejoin:round;stroke-miterlimit:10;" d="
			M51.021,189.953L51.021,189.953c0.649,4.732,4.37,8.454,9.102,9.102l0,0l0,0c-4.732,0.649-8.454,4.37-9.102,9.102l0,0l0,0
			c-0.649-4.732-4.37-8.453-9.102-9.102l0,0l0,0C46.651,198.407,50.372,194.685,51.021,189.953L51.021,189.953z"/>
	</g>
</g>
<g id="Camera">
	<g>
		<g>
			<path style="fill:#9ABAE3;" d="M72.866,453.162h345.916c7.037,0,12.742-5.705,12.742-12.742V239.615
				c0-7.037-5.705-12.743-12.742-12.743H72.866c-7.037,0-12.742,5.705-12.742,12.742v200.805
				C60.123,447.457,65.828,453.162,72.866,453.162z"/>
			<path style="fill:#FFFFFF;" d="M392.729,453.162h26.704c6.678,0,12.095-5.407,12.095-12.086V238.96
				c0-6.678-5.417-12.086-12.095-12.086h-26.704c6.678,0,12.086,5.407,12.086,12.086v202.116
				C404.814,447.755,399.407,453.162,392.729,453.162z"/>
			<path style="fill:none;stroke:#263238;stroke-width:2.5;stroke-linecap:round;stroke-linejoin:round;stroke-miterlimit:10;" d="
				M72.866,453.162h345.916c7.037,0,12.742-5.705,12.742-12.742V239.615c0-7.037-5.705-12.743-12.742-12.743H72.866
				c-7.037,0-12.742,5.705-12.742,12.742v200.805C60.123,447.457,65.828,453.162,72.866,453.162z"/>
		</g>
		<polygon style="fill:#9ABAE3;" points="176.481,193.223 264.693,193.223 289.357,226.872 151.817,226.872 		"/>
		<polygon style="fill:#FFFFFF;" points="240.919,193.227 265.583,226.875 289.356,226.875 264.692,193.227 		"/>
		
			<polygon style="fill:none;stroke:#263238;stroke-width:2.5;stroke-linecap:round;stroke-linejoin:round;stroke-miterlimit:10;" points="
			176.481,193.223 264.693,193.223 289.357,226.872 151.817,226.872 		"/>
		
			<rect x="338.032" y="248.324" transform="matrix(-1 -1.224647e-16 1.224647e-16 -1 721.069 517.2461)" style="fill:#263238;stroke:#263238;stroke-width:2.5;stroke-linecap:round;stroke-linejoin:round;stroke-miterlimit:10;" width="45.006" height="20.599"/>
		
			<ellipse transform="matrix(0.9735 -0.2287 0.2287 0.9735 -56.1341 32.9475)" style="fill:#FFFFFF;stroke:#263238;stroke-width:2.5;stroke-linecap:round;stroke-linejoin:round;stroke-miterlimit:10;" cx="114.061" cy="258.623" rx="10.3" ry="10.3"/>
		<path style="fill:#9ABAE3;" d="M341.869,214.25h39.865c2.465,0,4.463,1.998,4.463,4.463v8.159h-48.791v-8.159
			C337.406,216.248,339.404,214.25,341.869,214.25z"/>
		<path style="fill:#FFFFFF;" d="M369.491,214.245c2.343,0,4.24,1.897,4.24,4.24v8.386h12.465v-8.386c0-2.343-1.897-4.24-4.231-4.24
			H369.491z"/>
		<path style="fill:none;stroke:#263238;stroke-width:2.5;stroke-linecap:round;stroke-linejoin:round;stroke-miterlimit:10;" d="
			M341.869,214.25h39.865c2.465,0,4.463,1.998,4.463,4.463v8.159h-48.791v-8.159C337.406,216.248,339.404,214.25,341.869,214.25z"/>
		
			<path style="fill:#EC644E;stroke:#263238;stroke-width:2.5;stroke-linecap:round;stroke-linejoin:round;stroke-miterlimit:10;" d="
			M353.795,205.749h16.013c2.465,0,4.463,1.998,4.463,4.463v4.133h-24.939v-4.133C349.332,207.748,351.33,205.749,353.795,205.749z"
			/>
		<g>
			
				<polyline style="fill:#EC644E;stroke:#263238;stroke-width:2.5;stroke-linecap:round;stroke-linejoin:round;stroke-miterlimit:10;" points="
				404.914,287.44 60.123,287.44 60.123,432.552 404.914,432.552 			"/>
			
				<line style="fill:none;stroke:#263238;stroke-width:2.5;stroke-linecap:round;stroke-linejoin:round;stroke-miterlimit:10;" x1="431.524" y1="287.44" x2="401.287" y2="287.44"/>
			
				<line style="fill:none;stroke:#263238;stroke-width:2.5;stroke-linecap:round;stroke-linejoin:round;stroke-miterlimit:10;" x1="431.524" y1="432.552" x2="401.287" y2="432.552"/>
		</g>
		<g>
			
				<circle style="fill:#9ABAE3;stroke:#263238;stroke-width:2.5;stroke-linecap:round;stroke-linejoin:round;stroke-miterlimit:10;" cx="219.115" cy="359.996" r="109.78"/>
			
				<circle style="fill:none;stroke:#263238;stroke-width:2.5;stroke-linecap:round;stroke-linejoin:round;stroke-miterlimit:10;" cx="219.115" cy="359.996" r="91.074"/>
			
				<ellipse transform="matrix(0.7071 -0.7071 0.7071 0.7071 -190.3784 260.3781)" style="fill:#263238;stroke:#263238;stroke-width:2.5;stroke-linecap:round;stroke-linejoin:round;stroke-miterlimit:10;" cx="219.115" cy="359.996" rx="80.968" ry="80.968"/>
			<path style="fill:#FFFFFF;" d="M244.21,295.776c29.316,2.65,51.083,50.285,37.267,62.939
				c-8.823,8.081-14.734-11.55-37.762-25.272c-5.926-3.531-17.417-8.719-18.612-20.505
				C223.998,302.054,232.221,294.692,244.21,295.776z"/>
			<path style="fill:#FFFFFF;" d="M215.75,343.988c20.601,0,20.635,32.016,0,32.016C195.149,376.004,195.115,343.988,215.75,343.988
				z"/>
		</g>
		<g>
			
				<rect x="86.86" y="221.781" transform="matrix(-1 -1.224647e-16 1.224647e-16 -1 221.8808 448.656)" style="fill:#9ABAE3;stroke:#263238;stroke-width:2.5;stroke-linecap:round;stroke-linejoin:round;stroke-miterlimit:10;" width="48.16" height="5.094"/>
			<path style="fill:#9ABAE3;" d="M84.525,221.781h52.83c2.601,0,4.71-2.109,4.71-4.71v-7.863c0-2.601-2.109-4.71-4.71-4.71H84.525
				c-2.601,0-4.71,2.109-4.71,4.71v7.863C79.815,219.672,81.924,221.781,84.525,221.781z"/>
			<path style="fill:#FFFFFF;" d="M125.825,221.777h11.772c2.467,0,4.468-1.992,4.468-4.468v-8.338c0-2.476-2.002-4.468-4.468-4.468
				h-11.772c2.466,0,4.468,1.992,4.468,4.468v8.338C130.293,219.785,128.291,221.777,125.825,221.777z"/>
			<path style="fill:none;stroke:#263238;stroke-width:2.5;stroke-linecap:round;stroke-linejoin:round;stroke-miterlimit:10;" d="
				M84.525,221.781h52.83c2.601,0,4.71-2.109,4.71-4.71v-7.863c0-2.601-2.109-4.71-4.71-4.71H84.525c-2.601,0-4.71,2.109-4.71,4.71
				v7.863C79.815,219.672,81.924,221.781,84.525,221.781z"/>
		</g>
	</g>
</g>
<g id="Character">
	<g>
		<g>
			<g>
				<g>
					<g>
						<g>
							<polygon style="fill:#EC644E;" points="412.26,300.315 418.799,315.361 473.155,291.741 449.501,284.132 							"/>
							
								<polygon style="fill:none;stroke:#263238;stroke-width:2.5;stroke-linecap:round;stroke-linejoin:round;stroke-miterlimit:10;" points="
								412.26,300.315 418.799,315.361 473.155,291.741 449.501,284.132 							"/>
						</g>
						<g>
							
								<polygon style="fill:#FFFFFF;stroke:#263238;stroke-width:2.5;stroke-linecap:round;stroke-linejoin:round;stroke-miterlimit:10;" points="
								440.379,266.632 449.501,284.131 412.257,300.315 400.826,283.819 							"/>
							
								<line style="fill:none;stroke:#263238;stroke-width:2.5;stroke-linecap:round;stroke-linejoin:round;stroke-miterlimit:10;" x1="412.124" y1="285.057" x2="442.991" y2="271.644"/>
						</g>
						
							<path style="fill:#FFFFFF;stroke:#263238;stroke-width:2.5;stroke-linecap:round;stroke-linejoin:round;stroke-miterlimit:10;" d="
							M471.315,289.829l-52.658,22.882c-1.26,0.547-1.837,2.013-1.29,3.272l0,0c0.548,1.26,2.013,1.837,3.272,1.29l52.658-22.882
							c1.26-0.547,1.837-2.012,1.29-3.272l0,0C474.039,289.859,472.574,289.281,471.315,289.829z"/>
						
							<path style="fill:#FFFFFF;stroke:#263238;stroke-width:2.5;stroke-linecap:round;stroke-linejoin:round;stroke-miterlimit:10;" d="
							M453.352,297.634c0,0-1.792-6.296,5.621-11.757c0,0,9.689-0.319,11.671,4.243L453.352,297.634z"/>
						
							<line style="fill:none;stroke:#263238;stroke-width:2.5;stroke-linecap:round;stroke-linejoin:round;stroke-miterlimit:10;" x1="443.672" y1="291.701" x2="453.314" y2="283.502"/>
						
							<line style="fill:none;stroke:#263238;stroke-width:2.5;stroke-linecap:round;stroke-linejoin:round;stroke-miterlimit:10;" x1="447.586" y1="292.83" x2="457.229" y2="284.631"/>
					</g>
					<path style="fill:#263238;" d="M447.535,274.119c0,0-29.383,16.023-39.147,18.477c-9.1,2.287-7.482,6.53-7.482,6.53
						c-15.469-13.006-37.064-69.624-37.064-69.624c-2.932-2.397-62.17,8.981-75.084-1.374c-11.677-9.364-16.023-25.923-9.429-53.375
						l55.606-4.232c0,0,42.489,2.154,61.008,11.165C419.197,193.002,447.535,274.119,447.535,274.119z"/>
					<path style="fill:#FFFFFF;" d="M447.535,274.116c0,0-1.678,0.919-4.367,2.347c-5.352-14.716-31.359-83.592-53.118-94.176
						c-15.686-7.638-47.759-10.579-59.525-11.431l4.408-0.336c0,0,42.487,2.157,61.015,11.166
						C419.192,193.003,447.535,274.116,447.535,274.116z"/>
					
						<path style="fill:none;stroke:#263238;stroke-width:2.5;stroke-linecap:round;stroke-linejoin:round;stroke-miterlimit:10;" d="
						M447.535,274.119c0,0-29.383,16.023-39.147,18.477c-9.1,2.287-7.482,6.53-7.482,6.53
						c-15.469-13.006-37.064-69.624-37.064-69.624c-2.932-2.397-62.17,8.981-75.084-1.374c-11.677-9.364-16.023-25.923-9.429-53.375
						l55.606-4.232c0,0,42.489,2.154,61.008,11.165C419.197,193.002,447.535,274.119,447.535,274.119z"/>
					<path style="fill:#263238;" d="M410.218,297.373c0,0-6.843,4.082-9.142,2.773c-1.157-0.658,1.042-6.146,6.577-6.476
						L410.218,297.373z"/>
				</g>
			</g>
			<g>
				<g>
					<g>
						<g>
							<polygon style="fill:#EC644E;" points="319.928,313.048 314.567,328.554 370.579,347.921 358.303,326.317 							"/>
							
								<polygon style="fill:none;stroke:#263238;stroke-width:2.5;stroke-linecap:round;stroke-linejoin:round;stroke-miterlimit:10;" points="
								319.928,313.048 314.567,328.554 370.579,347.921 358.303,326.317 							"/>
						</g>
						<g>
							
								<polygon style="fill:#FFFFFF;stroke:#263238;stroke-width:2.5;stroke-linecap:round;stroke-linejoin:round;stroke-miterlimit:10;" points="
								363.421,307.258 358.304,326.316 319.924,313.046 322.663,293.165 							"/>
							
								<line style="fill:none;stroke:#263238;stroke-width:2.5;stroke-linecap:round;stroke-linejoin:round;stroke-miterlimit:10;" x1="330.147" y1="301.718" x2="361.955" y2="312.716"/>
						</g>
						
							<path style="fill:#FFFFFF;stroke:#263238;stroke-width:2.5;stroke-linecap:round;stroke-linejoin:round;stroke-miterlimit:10;" d="
							M370.517,345.268l-54.263-18.762c-1.298-0.449-2.714,0.24-3.163,1.538l0,0c-0.449,1.298,0.24,2.715,1.538,3.163l54.262,18.762
							c1.298,0.449,2.715-0.24,3.163-1.538l0,0C372.504,347.133,371.815,345.716,370.517,345.268z"/>
						
							<path style="fill:#FFFFFF;stroke:#263238;stroke-width:2.5;stroke-linecap:round;stroke-linejoin:round;stroke-miterlimit:10;" d="
							M352.007,338.868c0,0,2.938-5.849,12.092-4.858c0,0,7.352,6.318,5.726,11.019L352.007,338.868z"/>
						
							<line style="fill:none;stroke:#263238;stroke-width:2.5;stroke-linecap:round;stroke-linejoin:round;stroke-miterlimit:10;" x1="348.89" y1="327.95" x2="361.538" y2="328.433"/>
						
							<line style="fill:none;stroke:#263238;stroke-width:2.5;stroke-linecap:round;stroke-linejoin:round;stroke-miterlimit:10;" x1="351.009" y1="331.428" x2="363.658" y2="331.912"/>
					</g>
					<g>
						<g>
							
								<path style="fill:#263238;stroke:#263238;stroke-width:2.5;stroke-linecap:round;stroke-linejoin:round;stroke-miterlimit:10;" d="
								M324.499,171.917l-47.405,3.709c-8.258,24.854-5.382,37.812-0.853,45.327c8.36,13.871,60.57,17.5,60.57,17.5
								c-9.042,10.246-9.122,36.46-16.421,45.732c-15.468,19.65-3.044,25.707-3.044,25.707c-3.691-6.781,6.068-7.662,27.381,5.47
								c15.438,9.512,24.478,2.119,24.478,2.119s29.959-80.1,23.007-101.597c-6.338-19.6-56.379-29.692-56.379-29.692"/>
						</g>
						<path style="fill:#263238;" d="M320.132,312.398c0,0-6.209-1.911-5.565-3.908c0.409-1.267,2.193-2.461,6.519-2.831
							L320.132,312.398z"/>
					</g>
					
						<path style="fill:none;stroke:#FFFFFF;stroke-width:2.5;stroke-linecap:round;stroke-linejoin:round;stroke-miterlimit:10;" d="
						M335.248,239.3c0,0,5.78-8.008,16.427-11.753"/>
					
						<path style="fill:none;stroke:#FFFFFF;stroke-width:2.5;stroke-linecap:round;stroke-linejoin:round;stroke-miterlimit:10;" d="
						M382.812,276.462c0,0,17.628-45.445,9.731-62.64c-7.897-17.195-56.708-27.632-56.708-27.632"/>
				</g>
			</g>
		</g>
		<g>
			<g>
				<g>
					
						<path style="fill:#F0BA92;stroke:#263238;stroke-width:2.5;stroke-linecap:round;stroke-linejoin:round;stroke-miterlimit:10;" d="
						M391.219,121.004c3.368-9.007,6.101-14.072,6.478-14.707c2.752-4.64,10.469-14.744,8.073-19.21
						c-1.086-2.025-3.145-2.514-3.145-2.514s0.888-3.491-1.232-4.955c-1.859-1.284-4.757,1.018-4.757,1.018s1.225-3.563-1.128-4.985
						c-3.932-2.377-20.786,13.114-21.143,13.482c-3.524,3.63-10.302,19.068-10.302,19.068L391.219,121.004z"/>
					
						<path style="fill:#F0BA92;stroke:#263238;stroke-width:2.5;stroke-linecap:round;stroke-linejoin:round;stroke-miterlimit:10;" d="
						M370.627,96.25c0,0,1.52-7.01,1.767-9.471c0.229-2.288,0.19-5.794,0.274-7.21c0.195-3.299,4.29-4.243,6.695,1.718
						c1.253,3.104,0.711,3.09,2.059,7.456c0,0,5.853,2.996,6.648,9.541"/>
					
						<path style="fill:#F0BA92;stroke:#263238;stroke-width:2.5;stroke-linecap:round;stroke-linejoin:round;stroke-miterlimit:10;" d="
						M402.5,84.964c-0.68,3.566-5.988,9.855-5.988,9.855"/>
					
						<path style="fill:#F0BA92;stroke:#263238;stroke-width:2.5;stroke-linecap:round;stroke-linejoin:round;stroke-miterlimit:10;" d="
						M396.966,80.098c-2.387,3.995-7.07,9.11-7.07,9.11"/>
				</g>
				<g>
					<path style="fill:#EC644E;" d="M336.688,149.428c0,0,15.87,16.137,20.498,16.441c2.884,0.189,9.918,1.434,18.192-4.779
						c7.738-5.811,25.05-45.312,25.05-45.312s-3.877,3.502-22.067-8.819c-8.068-5.465-11.245-1.583-16.402-6.578l-9.001,20.704
						c0,0-20.637-18.888-32.843-16.888c-8.091,1.326-14.068,4.784-14.068,4.784"/>
					<path style="fill:#EC644E;" d="M400.425,115.775c0,0-0.068,0.203-0.193,0.589C400.416,116.045,400.425,115.775,400.425,115.775
						z"/>
					<path style="fill:#FFFFFF;" d="M361.961,100.378l-1.998,4.605c5.039,4.721,8.245,1.004,16.209,6.401
						c14.491,9.818,21.202,10.637,21.878,9.402c-1.149,3.504-10.978,19.358-17.118,32.42c6.748-12.763,17.997-32.893,19.3-36.841
						c-0.686,1.236-7.397,0.397-21.868-9.402C370.293,101.498,367.117,105.379,361.961,100.378z"/>
					<path style="fill:#FFFFFF;" d="M306.045,108.98l0.222,0.29c2.172-0.415,5.445-1.014,9.635-1.699
						c12.203-1.998,34.871,17.937,34.871,17.937l1.998-4.595c-2.105-1.892-21.133-18.604-32.65-16.711
						C312.031,105.523,306.045,108.98,306.045,108.98z"/>
					<path style="fill:#EC644E;" d="M398.243,120.206c0,0-0.068,0.203-0.193,0.579C398.234,120.467,398.243,120.206,398.243,120.206
						z"/>
					
						<path style="fill:none;stroke:#263238;stroke-width:2.5;stroke-linecap:round;stroke-linejoin:round;stroke-miterlimit:10;" d="
						M336.688,149.428c0,0,15.87,16.137,20.498,16.441c2.884,0.189,9.918,1.434,18.192-4.779c7.738-5.811,25.05-45.312,25.05-45.312
						s-3.877,3.502-22.067-8.819c-8.068-5.465-11.245-1.583-16.402-6.578l-9.001,20.704c0,0-20.637-18.888-32.843-16.888
						c-8.091,1.326-14.068,4.784-14.068,4.784"/>
					<path style="fill:#263238;" d="M401.281,115.897c1.026-2.054-5.585-4.961-5.585-4.961l-3.153,4.996
						C392.543,115.932,400.425,117.61,401.281,115.897z"/>
					
						<path style="fill:none;stroke:#263238;stroke-width:2.5;stroke-linecap:round;stroke-linejoin:round;stroke-miterlimit:10;" d="
						M349.271,130.404c0,0,1.616-3.679,3.697-9.4"/>
					<path style="fill:#263238;" d="M361.266,99.668c0.637-1.377,8.107,0.024,8.107,0.024l-2.589,3.047
						C366.784,102.738,360.516,101.286,361.266,99.668z"/>
				</g>
			</g>
			<g>
				<path style="fill:#EC644E;" d="M273.774,119.121c-6.348,6.96-6.192,26.777-7.131,43.115c0,0-6.631,25.206-5.502,32.503
					c0.619,4.003,4.548,5.487,5.383,3.666c5.783-12.608,13.265-4.188,30.652-6.92c20.383-3.202,46.451-18.843,48.823-20.13
					c2.796-1.518,3.337-6.104-0.627-12.497c-2.39-3.854-4.47-5.223-7.626-14.477c0,0,1.163-2.926,0.649-4.479
					c-3.832-11.584-11.787-19.923-17.844-26.838c-1.763-2.012-3.473-6.005-20.186-2.412
					C289.644,112.956,281.68,110.453,273.774,119.121z"/>
				<path style="fill:none;stroke:#263238;stroke-width:2.5;stroke-linecap:round;stroke-linejoin:round;stroke-miterlimit:10;" d="
					M310.725,106.814c-5.435,1.887-6.67,3.153-10.361,3.837c-10.782,1.998-18.685-0.199-26.591,8.47
					c-6.348,6.96-6.192,26.777-7.131,43.115c0,0-5.707,20.71-5.496,30.904c0.093,4.531,4.721,6.486,5.779,4.476
					c6.25-11.875,11.094-3.003,32.303-6.432c16.718-2.703,44.833-18.778,46.77-19.83c2.796-1.518,3.259-6.182-0.627-12.497
					c-2.377-3.862-4.001-2.799-7.626-14.477"/>
				<g>
					
						<path style="fill:none;stroke:#263238;stroke-width:2.5;stroke-linecap:round;stroke-linejoin:round;stroke-miterlimit:10;" d="
						M331.783,121.054c0.73,2.504,0.5,5.077,0.5,5.077"/>
					
						<path style="fill:none;stroke:#263238;stroke-width:2.5;stroke-linecap:round;stroke-linejoin:round;stroke-miterlimit:10;" d="
						M337.746,144.38c0,0,1.236-1.88,0.649-4.479c-1.965-8.705-10.263-19.811-10.263-19.811"/>
				</g>
				<path style="fill:none;stroke:#263238;stroke-width:2.5;stroke-linecap:round;stroke-linejoin:round;stroke-miterlimit:10;" d="
					M307.76,150.845c5.106-0.498,12.31-3.054,16.285-3.357"/>
				<path style="fill:none;stroke:#263238;stroke-width:2.5;stroke-linecap:round;stroke-linejoin:round;stroke-miterlimit:10;" d="
					M315.903,153.205c0,0-5.741-0.123-9.029,3.95"/>
			</g>
			<g>
				<g>
					<g>
						
							<path style="fill:#F0BA92;stroke:#263238;stroke-width:2.5;stroke-linecap:round;stroke-linejoin:round;stroke-miterlimit:10;" d="
							M221.89,218.463c0,0-9.822,10.634-12.716,8.632c-3.773-2.611,11.667-15.449,15.733-19.226L221.89,218.463z"/>
					</g>
					<g>
						<g>
							
								<path style="fill:#F0BA92;stroke:#263238;stroke-width:2.5;stroke-linecap:round;stroke-linejoin:round;stroke-miterlimit:10;" d="
								M228.797,201.573c3.562-5.485,7.854-11.619,7.854-11.619l26.419,10.214c0,0-8.15,10.249-11.854,15.261
								c-1.681,2.275-3.147,12.117-5.829,12.484c-6.122,0.838-3.075-12.018-7.253-12.716c-7.521-1.257-16.85,14.805-23.32,12.221
								C210.343,225.632,221.885,212.217,228.797,201.573z"/>
						</g>
						
							<path style="fill:#B5846B;stroke:#263238;stroke-width:2.5;stroke-linecap:round;stroke-linejoin:round;stroke-miterlimit:10;" d="
							M244.52,223.912c0,0-0.01-3.314,3.298-4.499"/>
					</g>
				</g>
				<g>
					<path style="fill:#EC644E;" d="M290.836,111.714c-7.575,0.557-21.609,0.341-29.751,13.242
						c-8.141,12.901-13.48,31.566-15.664,35.378c-2.184,3.811-17.262,34.034-17.262,34.034c8.521,0.048,8.933,7.449,15.635,8.667
						c6.702,1.218,19.759,0.85,18.882,5.152c0,0,11.756-26.26,13.493-30.463c0.779-1.885,5.736-18.652,9.471-32.597"/>
					
						<path style="fill:none;stroke:#263238;stroke-width:2.5;stroke-linecap:round;stroke-linejoin:round;stroke-miterlimit:10;" d="
						M290.836,111.714c-7.575,0.557-21.609,0.341-29.751,13.242c-8.141,12.901-13.48,31.566-15.664,35.378
						c-2.184,3.811-17.262,34.034-17.262,34.034c8.521,0.048,8.933,7.449,15.635,8.667c6.702,1.218,19.759,0.85,18.882,5.152
						c0,0,11.756-26.26,13.493-30.463c0.779-1.885,5.736-18.652,9.471-32.597"/>
					
						<path style="fill:none;stroke:#263238;stroke-width:2.5;stroke-linecap:round;stroke-linejoin:round;stroke-miterlimit:10;" d="
						M289.126,148.824c-1.905,0.318-4.349,1.549-5.335,3.188"/>
					<path style="fill:#263238;" d="M263.018,209.004c-0.83,1.598-6.761-0.022-6.761-0.022l2.371-4.049
						C258.629,204.933,263.629,207.829,263.018,209.004z"/>
					<path style="fill:#263238;" d="M233.225,195.559l-1.739,3.496c0,0-4.83-3.354-4.304-4.657
						C227.708,193.096,233.225,195.559,233.225,195.559z"/>
				</g>
			</g>
			<g>
				<g>
					
						<path style="fill:#EC644E;stroke:#263238;stroke-width:2.5;stroke-linecap:round;stroke-linejoin:round;stroke-miterlimit:10;" d="
						M278.672,114.091c0,0-7.981-3.021-5.961-9.105c3.684-11.097,18.332-12.021,28.04-8.062c0,0,13.99-1.866,18.11,7.515
						l-12.367,14.629c0,0-9.421,0.461-21.115-2.479"/>
					
						<path style="fill:none;stroke:#263238;stroke-width:2.5;stroke-linecap:round;stroke-linejoin:round;stroke-miterlimit:10;" d="
						M304.375,115.504c0,0-24.241-3.148-21.016-11.051"/>
					
						<path style="fill:none;stroke:#263238;stroke-width:2.5;stroke-linecap:round;stroke-linejoin:round;stroke-miterlimit:10;" d="
						M309.12,113.578c0,0,7.252,9.498,5.724,17.348"/>
					
						<path style="fill:none;stroke:#263238;stroke-width:2.5;stroke-linecap:round;stroke-linejoin:round;stroke-miterlimit:10;" d="
						M297.383,115.945c0,0-3.544,13.527,3.037,19.785"/>
				</g>
				<path style="fill:#263238;" d="M304.717,111.594c0,0,3.721,3.696,1.388,4.693c-3.659,1.564-10.126-3.444-10.126-3.444
					L304.717,111.594z"/>
				<g>
					<g>
						<path style="fill:#F0BA92;" d="M289.872,105.725c-2.709-6.135-0.716-12.958,4.452-15.24
							c5.168-2.282,11.553,0.842,14.262,6.977c2.709,6.135,0.716,12.958-4.452,15.24
							C298.966,114.983,292.581,111.859,289.872,105.725z"/>
						<path style="fill:#FFFFFF;" d="M304.134,112.702c-1.443,0.636-2.984,0.853-4.51,0.693c0.738-0.105,1.461-0.31,2.166-0.618
							c4.897-2.166,6.786-8.633,4.22-14.451c-2.571-5.818-8.624-8.777-13.521-6.615c-0.123,0.056-0.25,0.112-0.368,0.175
							c0.65-0.568,1.388-1.043,2.204-1.402c5.166-2.28,11.552,0.843,14.261,6.978C311.296,103.597,309.303,110.418,304.134,112.702z
							"/>
						
							<path style="fill:none;stroke:#263238;stroke-width:2.5;stroke-linecap:round;stroke-linejoin:round;stroke-miterlimit:10;" d="
							M289.872,105.725c-2.709-6.135-0.716-12.958,4.452-15.24c5.168-2.282,11.553,0.842,14.262,6.977
							c2.709,6.135,0.716,12.958-4.452,15.24C298.966,114.983,292.581,111.859,289.872,105.725z"/>
					</g>
					<path style="fill:#263238;" d="M290.263,106.534c0,0,8.232-2.317,7.574-13.213c0,0,4.469,4.188,9.889,2.489
						c0,0-5.384-8.123-12.634-5.893C287.843,92.147,286.925,102.322,290.263,106.534z"/>
				</g>
				<path style="fill:#263238;" d="M293.048,93.271c-5.746,4.278-9.669-0.77-10.114-3.545c-0.575-3.585-1.981-4.9-3.016-4.916
					c-3.621-0.054-8.436,7.531-14.823,2.045c-7.831-6.726,0.419-18.572,7.69-17.071c7.271,1.5,6.787,9.284,9.275,11.073
					c2.487,1.789,5.129-3.05,10.673,0.251C295.159,82.553,298.471,89.233,293.048,93.271z"/>
			</g>
		</g>
	</g>
</g>
<g id="Speech_Bubble">
	<g>
		
			<path style="fill:#FFFFFF;stroke:#263238;stroke-width:2.5;stroke-linecap:round;stroke-linejoin:round;stroke-miterlimit:10;" d="
			M212.456,38.759c10.293-3.94,23.831-2.856,32.51,4.336c7.729,6.401,10.256,17.972,6.596,27.205
			c-4.367,11.011-16.955,17.016-28.356,15.11c-0.755-0.128,0.659,5.163,3.947,8.137c1.291,1.167,2.582,2.266,4.099,3.039
			c-7.01-0.548-13.861-3.52-15.731-11.06c-8.356-2.612-20.676-10.286-20.993-21.243C194.192,52.901,202.06,42.73,212.456,38.759z"/>
		<path style="fill:#EC644E;" d="M212.702,65.999c2.372,4.037,7.188,6.862,10.561,8.475c3.373-1.613,8.19-4.438,10.551-8.475
			c2.709-4.596,3.004-11.32-2.667-12.965c-5.06-1.455-7.884,4.965-7.884,4.965s-2.825-6.419-7.884-4.965
			C209.708,54.679,210.003,61.403,212.702,65.999z"/>
	</g>
</g>
</svg>
