<?xml version="1.0" encoding="utf-8"?>
<!-- Generator: Adobe Illustrator 27.5.0, SVG Export Plug-In . SVG Version: 6.00 Build 0)  -->
<svg version="1.1" xmlns="http://www.w3.org/2000/svg" xmlns:xlink="http://www.w3.org/1999/xlink" x="0px" y="0px"
	 viewBox="0 0 500 500" style="enable-background:new 0 0 500 500;" xml:space="preserve">
<g id="Floor">
	
		<line style="fill:none;stroke:#263238;stroke-width:2.5;stroke-linecap:round;stroke-linejoin:round;stroke-miterlimit:10;" x1="64.195" y1="465.072" x2="435.805" y2="465.072"/>
</g>
<g id="Speech_Bubble">
	<g>
		
			<path style="fill:#FFFFFF;stroke:#263238;stroke-width:2.5;stroke-linecap:round;stroke-linejoin:round;stroke-miterlimit:10;" d="
			M105.329,55.981c10.762-4.12,24.917-2.986,33.992,4.534c8.081,6.693,10.723,18.791,6.896,28.445
			c-4.566,11.513-17.728,17.792-29.648,15.799c-0.79-0.134,0.688,5.399,4.126,8.507c1.35,1.22,2.7,2.369,4.285,3.177
			c-7.329-0.573-14.493-3.681-16.448-11.564c-8.737-2.731-21.619-10.755-21.95-22.211C86.232,70.767,94.46,60.133,105.329,55.981z"
			/>
		<path style="fill:#EC644E;" d="M111.55,91.854l-8.628-8.628c-0.436-0.436-0.436-1.142,0-1.578l2.615-2.615
			c0.436-0.436,1.143-0.436,1.579,0l4.803,4.803c0.232,0.232,0.61,0.232,0.842,0L127.4,69.198c0.436-0.436,1.143-0.436,1.579,0
			l2.614,2.614c0.436,0.436,0.436,1.143,0,1.579l-18.464,18.463C112.693,92.29,111.986,92.29,111.55,91.854z"/>
	</g>
</g>
<g id="Camera">
	<g>
		
			<path style="fill:#9ABAE3;stroke:#263238;stroke-width:2.5;stroke-linecap:round;stroke-linejoin:round;stroke-miterlimit:10;" d="
			M379.073,465.072H133.975c-11.876,0-21.503-9.627-21.503-21.503V310.772c0-11.876,9.627-21.503,21.503-21.503h245.098
			c11.876,0,21.503,9.627,21.503,21.503v132.796C400.577,455.444,390.949,465.072,379.073,465.072z"/>
		
			<path style="fill:#9ABAE3;stroke:#263238;stroke-width:2.5;stroke-linecap:round;stroke-linejoin:round;stroke-miterlimit:10;" d="
			M159.668,448.794h-45.25c-2.759,0-4.995-2.236-4.995-4.995V323.496c0-2.759,2.236-4.995,4.995-4.995h45.25
			c8.633,0,15.632,6.999,15.632,15.632v99.029C175.3,441.795,168.301,448.794,159.668,448.794z"/>
		<g>
			
				<path style="fill:#9ABAE3;stroke:#263238;stroke-width:2.5;stroke-linecap:round;stroke-linejoin:round;stroke-miterlimit:10;" d="
				M310.988,257.075h-62.653c-4.233,0-7.971,2.759-9.218,6.803l-7.831,25.39h96.752l-7.832-25.39
				C318.959,259.834,315.22,257.075,310.988,257.075z"/>
			
				<rect x="251.734" y="269.328" style="fill:#FFFFFF;stroke:#263238;stroke-width:2.5;stroke-linecap:round;stroke-linejoin:round;stroke-miterlimit:10;" width="55.854" height="9.68"/>
		</g>
		<g>
			
				<rect x="152.689" y="278.011" style="fill:#EC644E;stroke:#263238;stroke-width:2.5;stroke-linecap:round;stroke-linejoin:round;stroke-miterlimit:10;" width="45.702" height="11.258"/>
			
				<line style="fill:none;stroke:#263238;stroke-width:2.5;stroke-linecap:round;stroke-linejoin:round;stroke-miterlimit:10;" x1="156.311" y1="278.011" x2="156.311" y2="284.971"/>
			
				<line style="fill:none;stroke:#263238;stroke-width:2.5;stroke-linecap:round;stroke-linejoin:round;stroke-miterlimit:10;" x1="161.805" y1="278.011" x2="161.805" y2="284.971"/>
			
				<line style="fill:none;stroke:#263238;stroke-width:2.5;stroke-linecap:round;stroke-linejoin:round;stroke-miterlimit:10;" x1="167.299" y1="278.011" x2="167.299" y2="284.971"/>
			
				<line style="fill:none;stroke:#263238;stroke-width:2.5;stroke-linecap:round;stroke-linejoin:round;stroke-miterlimit:10;" x1="172.793" y1="278.011" x2="172.793" y2="284.971"/>
			
				<line style="fill:none;stroke:#263238;stroke-width:2.5;stroke-linecap:round;stroke-linejoin:round;stroke-miterlimit:10;" x1="178.286" y1="278.011" x2="178.286" y2="284.971"/>
			
				<line style="fill:none;stroke:#263238;stroke-width:2.5;stroke-linecap:round;stroke-linejoin:round;stroke-miterlimit:10;" x1="183.78" y1="278.011" x2="183.78" y2="284.971"/>
			
				<line style="fill:none;stroke:#263238;stroke-width:2.5;stroke-linecap:round;stroke-linejoin:round;stroke-miterlimit:10;" x1="189.274" y1="278.011" x2="189.274" y2="284.971"/>
			
				<line style="fill:none;stroke:#263238;stroke-width:2.5;stroke-linecap:round;stroke-linejoin:round;stroke-miterlimit:10;" x1="194.768" y1="278.011" x2="194.768" y2="284.971"/>
		</g>
		<g>
			
				<ellipse transform="matrix(0.7071 -0.7071 0.7071 0.7071 -188.2418 309.6515)" style="fill:#263238;" cx="279.661" cy="382.054" rx="72.218" ry="72.218"/>
			
				<ellipse transform="matrix(0.7071 -0.7071 0.7071 0.7071 -184.7887 308.2212)" style="fill:#9ABAE3;stroke:#263238;stroke-width:2.5;stroke-linecap:round;stroke-linejoin:round;stroke-miterlimit:10;" cx="279.661" cy="377.17" rx="72.218" ry="72.218"/>
			
				<ellipse transform="matrix(0.1571 -0.9876 0.9876 0.1571 -136.7634 594.0997)" style="fill:#9ABAE3;stroke:#263238;stroke-width:2.5;stroke-linecap:round;stroke-linejoin:round;stroke-miterlimit:10;" cx="279.661" cy="377.17" rx="62.67" ry="62.67"/>
			<circle style="fill:#263238;" cx="279.661" cy="377.17" r="55.9"/>
			<g style="opacity:0.5;">
				<path style="fill:#9ABAE3;" d="M335.564,377.169c0,3.038-0.239,6.021-0.716,8.93c-5.085,1.606-10.5,2.469-16.117,2.469
					c-29.636,0-53.665-24.029-53.665-53.665c0-4.139,0.468-8.178,1.358-12.051c4.24-1.037,8.673-1.579,13.235-1.579
					C310.535,321.274,335.564,346.294,335.564,377.169z"/>
				<path style="fill:#9ABAE3;" d="M284.708,429.237c0,1.212-0.046,2.423-0.138,3.616c-1.615,0.147-3.258,0.22-4.91,0.22
					c-28.572,0-52.132-21.44-55.482-49.103c4.231-1.248,8.71-1.918,13.345-1.918C263.58,382.052,284.708,403.18,284.708,429.237z"/>
			</g>
		</g>
	</g>
</g>
<g id="Photos">
	<g>
		<g>
			
				<polygon style="fill:#FFFFFF;stroke:#263238;stroke-width:2.5;stroke-linecap:round;stroke-linejoin:round;stroke-miterlimit:10;" points="
				192.389,465.072 60.031,465.072 71.066,339.863 203.424,339.863 			"/>
			<polygon style="fill:#263238;" points="185.52,457.573 68.222,457.573 77.935,347.362 195.233,347.362 			"/>
			<path style="fill:#FFFFFF;" d="M175.005,376.462c-0.442,5.017-4.867,9.083-9.884,9.083c-5.017,0-8.725-4.067-8.283-9.083
				c0.442-5.017,4.867-9.083,9.884-9.083C171.739,367.378,175.447,371.445,175.005,376.462z"/>
			<polygon style="fill:#FFFFFF;" points="68.222,457.573 120.109,409.888 152.37,445.267 164.446,434.168 185.532,457.439 			"/>
		</g>
		<g>
			
				<polygon style="fill:#FFFFFF;stroke:#263238;stroke-width:2.5;stroke-linecap:round;stroke-linejoin:round;stroke-miterlimit:10;" points="
				182.373,465.072 50.015,465.072 67.612,339.863 199.97,339.863 			"/>
			<polygon style="fill:#263238;" points="175.897,457.573 105.194,448.794 58.599,457.573 74.088,347.362 191.386,347.362 			"/>
			<path style="fill:#FFFFFF;" d="M169.633,376.462c-0.705,5.017-5.343,9.083-10.36,9.083c-5.017,0-8.512-4.067-7.807-9.083
				c0.705-5.017,5.344-9.083,10.36-9.083C166.843,367.378,170.338,371.445,169.633,376.462z"/>
			<polygon style="fill:#FFFFFF;" points="58.599,457.573 112.985,409.888 143.392,445.267 156.049,434.168 175.916,457.439 			"/>
		</g>
		<g>
			
				<rect x="311.322" y="100.516" style="fill:#FFFFFF;stroke:#263238;stroke-width:2.5;stroke-linecap:round;stroke-linejoin:round;stroke-miterlimit:10;" width="153.493" height="145.201"/>
			<polygon style="fill:#9ABAE3;" points="456.083,237.021 381.894,228.702 320.054,237.021 320.054,109.212 456.083,109.212 			"/>
			<path style="fill:#FFFFFF;" d="M435.599,142.958c0,5.818-4.716,10.534-10.534,10.534c-5.818,0-10.534-4.716-10.534-10.534
				c0-5.818,4.716-10.534,10.534-10.534C430.883,132.424,435.599,137.14,435.599,142.958z"/>
			<polygon style="fill:#FFFFFF;" points="320.054,237.021 375.353,181.721 416.381,222.75 429.252,209.879 456.083,236.866 			"/>
		</g>
	</g>
</g>
<g id="Character">
	<path style="fill:#9ABAE3;stroke:#263238;stroke-width:2.5;stroke-linecap:round;stroke-linejoin:round;stroke-miterlimit:10;" d="
		M191.597,195.511c28.084-12.936,45.866-46.794,45.826-59.993c-0.04-13.199-13.567-19.075-13.567-19.075l-43.143,45.705
		L191.597,195.511z"/>
	<g>
		<g>
			
				<rect x="235.484" y="44.521" transform="matrix(0.9785 -0.206 0.206 0.9785 -15.8424 64.7644)" style="fill:#FFFFFF;stroke:#263238;stroke-width:2.5;stroke-linecap:round;stroke-linejoin:round;stroke-miterlimit:10;" width="135.17" height="127.868"/>
			<polygon style="fill:#EC644E;" points="373.273,151.184 307.589,153.492 256.052,175.864 232.864,65.726 350.085,41.047 			"/>
			<path style="fill:#FFFFFF;" d="M338.556,73.843c1.056,5.013-2.153,9.933-7.166,10.989c-5.013,1.055-9.933-2.153-10.989-7.166
				c-1.056-5.013,2.153-9.933,7.166-10.989C332.581,65.622,337.5,68.83,338.556,73.843z"/>
			<polygon style="fill:#FFFFFF;" points="256.052,175.864 293.673,118.177 336.472,146.089 345.227,132.664 373.245,151.051 			"/>
		</g>
		<g>
			<g>
				<g>
					
						<polygon style="fill:#FCD8C3;stroke:#263238;stroke-width:2.5;stroke-linecap:round;stroke-linejoin:round;stroke-miterlimit:10;" points="
						187.908,257.057 167.166,266.982 198.751,287.26 216.027,282.343 					"/>
				</g>
				<g>
					
						<polygon style="fill:#263238;stroke:#263238;stroke-width:2.5;stroke-linecap:round;stroke-linejoin:round;stroke-miterlimit:10;" points="
						198.748,287.259 190.606,299.043 144.459,270.425 167.166,266.983 170.856,264.4 203.257,285.978 					"/>
					
						<path style="fill:none;stroke:#FFFFFF;stroke-width:2.5;stroke-linecap:round;stroke-linejoin:round;stroke-miterlimit:10;" d="
						M168.679,273.556c0,0-0.963-4.961-5.988-7.42"/>
					
						<path style="fill:none;stroke:#FFFFFF;stroke-width:2.5;stroke-linecap:round;stroke-linejoin:round;stroke-miterlimit:10;" d="
						M171.671,271.984c0,0-1.299-4.884-6.48-6.994"/>
					
						<path style="fill:#FFFFFF;stroke:#263238;stroke-width:2.5;stroke-linecap:round;stroke-linejoin:round;stroke-miterlimit:10;" d="
						M189.735,300.398l9.012-13.14c-3.804-1.533-16.999,0.539-20.32-0.772c-3.321-1.311-5.673-5.449-8.208-6.718
						c-2.535-1.269-5.38-1.303-6.902-2.281c-1.523-0.978-2.407-6.832-6.235-8.976c-3.828-2.144-16.454,1.368-13.493,3.269
						C146.549,273.681,189.735,300.398,189.735,300.398z"/>
				</g>
			</g>
			
				<path style="fill:#EC644E;stroke:#263238;stroke-width:2.5;stroke-linecap:round;stroke-linejoin:round;stroke-miterlimit:10;" d="
				M161.717,226.697c0,0,69.427-26.301,90.449-25.977c21.022,0.324,35.321,14.232,33.703,31.594s-16.005,36.847-73.898,57.868
				c0,0,0.97-2.911-1.617-5.498c-2.587-2.587-28.751-4.122-34.572-16.411c-5.821-12.29-6.291-9.446-6.291-9.446
				s12.472-16.835,56.058-29.447l-37.037,13.762L161.717,226.697z"/>
		</g>
		<g>
			<g>
				<g>
					<path style="fill:#9ABAE3;" d="M161.431,135.522c-12.093,1.212-22.865-0.586-33.52,6.869
						c-14.26,9.978-16.911,31.43-16.581,56.213c0.042,3.125-8.229,28.281-10.53,41.116c-1.004,5.603,1.694,9.631,2.171,8.18
						c4.567-13.905,51.067,2.743,76.071-10.571c24.706-13.156,18.474-23.309,30.789-27.17c0,0,6.327-0.68,0.698-8.799
						c-4.314-6.221-10.826-11.533-23.413-50.223"/>
				</g>
				<g>
					<path style="fill:#FFFFFF;" d="M102.972,247.904c0.653-1.997,1.851-3.438,3.501-4.457c0.013-0.696,0.08-1.438,0.217-2.207
						c2.301-12.829,9.736-38.053,9.699-41.179c-0.336-24.782,1.503-47.752,14.207-54.05c10.865-5.387,23.17-7.952,34.281-8.767
						l-3.448-1.726c-12.092,1.216-22.863-0.579-33.518,6.871c-14.264,9.975-16.914,31.432-16.578,56.214
						c0.038,3.126-8.232,28.283-10.534,41.121C99.794,245.326,102.496,249.352,102.972,247.904z"/>
				</g>
				<path style="fill:#263238;" d="M102.084,248.625c0.817-4.208,6.24-6.422,6.24-6.422l-0.856,7.776
					C107.468,249.979,101.681,250.704,102.084,248.625z"/>
				<g>
					
						<path style="fill:none;stroke:#263238;stroke-width:2.5;stroke-linecap:round;stroke-linejoin:round;stroke-miterlimit:10;" d="
						M161.431,135.522c-12.093,1.212-22.865-0.586-33.52,6.869c-14.26,9.978-16.911,31.43-16.581,56.213
						c0.042,3.125-8.229,28.281-10.53,41.116c-1.004,5.603,1.694,9.631,2.171,8.18c4.567-13.905,51.067,2.743,76.071-10.571
						c24.706-13.156,18.474-23.309,30.789-27.17c0,0,6.327-0.68,0.698-8.799c-4.314-6.221-10.826-11.533-23.413-50.223"/>
				</g>
			</g>
			<g>
				<path style="fill:#263238;" d="M156.304,137.357c0,0,4.112,4.11,1.522,5.207c-4.061,1.72-11.211-3.852-11.211-3.852
					L156.304,137.357z"/>
				<g>
					<g>
						
							<path style="fill:#FCD8C3;stroke:#263238;stroke-width:2.5;stroke-linecap:round;stroke-linejoin:round;stroke-miterlimit:10;" d="
							M161.007,122.238c2.92,6.882,0.588,14.454-5.209,16.913c-5.797,2.459-12.862-1.125-15.782-8.007
							c-2.92-6.881-0.588-14.453,5.209-16.913C151.021,111.772,158.087,115.357,161.007,122.238z"/>
						<path style="fill:#FFFFFF;" d="M145.225,114.231c1.618-0.685,3.339-0.902,5.038-0.7c-0.824,0.105-1.634,0.322-2.424,0.654
							c-5.493,2.334-7.704,9.511-4.938,16.037c2.771,6.526,9.469,9.922,14.962,7.592c0.138-0.06,0.28-0.121,0.413-0.189
							c-0.734,0.622-1.564,1.14-2.479,1.527c-5.794,2.457-12.861-1.127-15.781-8.008
							C137.095,124.262,139.427,116.692,145.225,114.231z"/>
						
							<path style="fill:none;stroke:#263238;stroke-width:2.5;stroke-linecap:round;stroke-linejoin:round;stroke-miterlimit:10;" d="
							M161.007,122.238c2.92,6.882,0.588,14.454-5.209,16.913c-5.797,2.459-12.862-1.125-15.782-8.007
							c-2.92-6.881-0.588-14.453,5.209-16.913C151.021,111.772,158.087,115.357,161.007,122.238z"/>
					</g>
					<g>
						<path style="fill:#263238;" d="M140.617,131.796c0,0,4.446-2.428,4.197-7.443c0,0,7.52-2.056,5.962-8.039
							c0,0,4.415,1.605,5.957-0.791c0,0-8.054-7.135-15.085,0.529S140.617,131.796,140.617,131.796z"/>
						<path style="fill:#263238;" d="M159.188,111.978c0.049,2.347-1.814,4.289-4.161,4.338c-2.347,0.049-4.289-1.814-4.338-4.161
							c-0.049-2.347,1.814-4.289,4.161-4.338C157.197,107.768,159.139,109.631,159.188,111.978z"/>
					</g>
					<path style="fill:#263238;" d="M148.523,110.713c-0.489,1.342-2.775,0.264-4.476,0.844c-1.701,0.58-3.102,2.018-3.894,1.273
						c-0.565-0.531-0.223-3.395,3.688-4.25C146.751,107.943,148.812,109.919,148.523,110.713z"/>
				</g>
			</g>
			<g>
				<g>
					
						<path style="fill:#FCD8C3;stroke:#263238;stroke-width:2.5;stroke-linecap:round;stroke-linejoin:round;stroke-miterlimit:10;" d="
						M251.039,111.247c0,0,6.745,0.731,3.685,7.415c0,0,2.937,4.618-0.085,8.489c-4.35,5.572-16.937,12.042-23.465,14.372
						l-13.976-24.285c2.426-1.596,5.977-3.041,7.608-5.676c3.157-5.101,4.383-15.605,7.603-14.174
						c3.723,1.654,2.621,10.523,2.621,10.523s8.352-3.044,12.166-3.681C251.242,103.553,253.579,107.741,251.039,111.247z"/>
					
						<path style="fill:none;stroke:#263238;stroke-width:2.5;stroke-linecap:round;stroke-linejoin:round;stroke-miterlimit:10;" d="
						M251.039,111.247c-1.849,2.038-8.08,4.148-8.08,4.148"/>
					
						<path style="fill:none;stroke:#263238;stroke-width:2.5;stroke-linecap:round;stroke-linejoin:round;stroke-miterlimit:10;" d="
						M254.724,118.662c-2.163,2.314-7.574,4.523-7.574,4.523"/>
				</g>
				<g>
					<g>
						<path style="fill:#9ABAE3;" d="M124.003,145.605c13.366-14.088,32.967-5.466,54.386-10.464c0,0,37.001-20.838,37.601-21.957
							c0.6-1.119,4.027-0.044,10.376,9.045c6.349,9.088,2.961,19.037,10.982,21.158c0,0,1.03,4.533-4.607,8.364
							c-11.406,7.751-29.012,16.072-30.888,17.129c-6.778,3.817-43.434,10.188-43.434,10.188"/>
						<path style="fill:#FFFFFF;" d="M124.005,145.605l2.91,2.93c14.274-11.616,34.008-4.074,55.369-9.542
							c0,0,30.932-18.299,38.644-23.455c-2.903-2.875-4.539-3.097-4.934-2.355c-0.601,1.119-37.602,21.959-37.602,21.959
							C156.967,140.142,137.369,131.52,124.005,145.605z"/>
						
							<path style="fill:none;stroke:#263238;stroke-width:2.5;stroke-linecap:round;stroke-linejoin:round;stroke-miterlimit:10;" d="
							M123.84,145.856c13.366-14.088,33.131-5.717,54.55-10.715c0,0,37.001-20.838,37.601-21.957
							c0.6-1.119,4.027-0.044,10.376,9.045c6.349,9.088,2.961,19.037,10.982,21.158c0,0,1.03,4.533-4.607,8.364
							c-11.406,7.751-29.012,16.072-30.888,17.129c-6.778,3.817-43.434,10.188-43.434,10.188"/>
					</g>
					
						<line style="fill:none;stroke:#263238;stroke-width:2.5;stroke-linecap:round;stroke-linejoin:round;stroke-miterlimit:10;" x1="163.846" y1="182.376" x2="170.709" y2="176.866"/>
				</g>
				<path style="fill:none;stroke:#263238;stroke-width:2.5;stroke-linecap:round;stroke-linejoin:round;stroke-miterlimit:10;" d="
					M231.564,99.767c0,0,2.255,5.895-3.041,6.668"/>
			</g>
		</g>
		<g>
			<g>
				<g>
					
						<polygon style="fill:#FCD8C3;stroke:#263238;stroke-width:2.5;stroke-linecap:round;stroke-linejoin:round;stroke-miterlimit:10;" points="
						245.869,271.282 265.485,283.279 231.99,300.217 215.308,293.557 					"/>
				</g>
				<g>
					
						<polygon style="fill:#263238;stroke:#263238;stroke-width:2.5;stroke-linecap:round;stroke-linejoin:round;stroke-miterlimit:10;" points="
						231.994,300.216 238.887,312.772 287.721,289.029 265.486,283.28 262.079,280.332 227.639,298.48 					"/>
					
						<path style="fill:none;stroke:#FFFFFF;stroke-width:2.5;stroke-linecap:round;stroke-linejoin:round;stroke-miterlimit:10;" d="
						M263.308,289.663c0,0,1.466-4.836,6.716-6.768"/>
					
						<path style="fill:none;stroke:#FFFFFF;stroke-width:2.5;stroke-linecap:round;stroke-linejoin:round;stroke-miterlimit:10;" d="
						M260.492,287.794c0,0,1.793-4.725,7.162-6.294"/>
					
						<path style="fill:#FFFFFF;stroke:#263238;stroke-width:2.5;stroke-linecap:round;stroke-linejoin:round;stroke-miterlimit:10;" d="
						M239.614,314.209l-7.62-13.993c3.941-1.135,16.854,2.277,20.292,1.313c3.438-0.964,6.201-4.84,8.853-5.842
						c2.651-1.003,5.485-0.746,7.1-1.562c1.615-0.817,3.094-6.55,7.122-8.29c4.028-1.741,16.228,3.046,13.088,4.633
						C285.308,292.054,239.614,314.209,239.614,314.209z"/>
				</g>
			</g>
			<g>
				<path style="fill:#EC644E;" d="M174.725,283.635c0,0-8.532,5.663-22.056,8.386c-13.524,2.723-40.952-5.899-45.203-34.025
					c-4.252-28.126,14.154-47.619,21.579-52.572c14.238-9.499,29.671-8.301,42.175-2.248c12.504,6.052,81.129,67.015,81.056,68.435
					c-0.073,1.42,1.002,6.281-3.189,11.408c-5.835,7.137-20.136,13.261-21.904,15.766c-3.378,4.789-1.169,7.498-1.169,7.498
					s-5.897,0.161-11.49-1.651C202.517,300.742,184.237,292.081,174.725,283.635z"/>
				<path style="fill:#FFFFFF;" d="M107.465,257.992c3.952,26.09,27.829,35.4,42.062,34.432
					c-13.856-2.206-30.983-12.292-34.267-34.032c-4.256-28.12,14.149-47.614,21.578-52.57c6.747-4.508,13.779-6.607,20.636-6.923
					c-9.213-1.336-19.079,0.283-28.431,6.523C121.623,210.378,103.218,229.873,107.465,257.992z"/>
				<path style="fill:none;stroke:#263238;stroke-width:2.5;stroke-linecap:round;stroke-linejoin:round;stroke-miterlimit:10;" d="
					M174.725,283.635c0,0-8.532,5.663-22.056,8.386c-13.524,2.723-40.952-5.899-45.203-34.025
					c-4.252-28.126,14.154-47.619,21.579-52.572c14.238-9.499,29.671-8.301,42.175-2.248c12.504,6.052,81.129,67.015,81.056,68.435
					c-0.073,1.42,1.002,6.281-3.189,11.408c-5.835,7.137-20.136,13.261-21.904,15.766c-3.378,4.789-1.169,7.498-1.169,7.498
					s-5.897,0.161-11.49-1.651C202.517,300.742,184.237,292.081,174.725,283.635z"/>
				<path style="fill:none;stroke:#263238;stroke-width:2.5;stroke-linecap:round;stroke-linejoin:round;stroke-miterlimit:10;" d="
					M174.725,283.635c-10.296-5.55-30.981-33.6-30.981-33.6"/>
				<path style="fill:none;stroke:#263238;stroke-width:2.5;stroke-linecap:round;stroke-linejoin:round;stroke-miterlimit:10;" d="
					M150.179,259.219c0,0-5.25-0.995-8.699-4.799"/>
			</g>
		</g>
	</g>
</g>
</svg>
